<svg width="800" height="330" viewBox="0 0 800 330" xmlns="http://www.w3.org/2000/svg" role="img" aria-label="Terminal profile card for Srimoneyshankar Ajith">
  <defs>
    <clipPath id="round"><rect x="0" y="0" width="800" height="330" rx="12"/></clipPath>
  </defs>
  <g clip-path="url(#round)">
    <rect width="800" height="330" fill="#18181b"/>
    <rect width="800" height="34" fill="#27272a"/>
    <circle cx="20" cy="17" r="6" fill="#f87171"/>
    <circle cx="42" cy="17" r="6" fill="#fbbf24"/>
    <circle cx="64" cy="17" r="6" fill="#34d399"/>
    <text x="400" y="22" text-anchor="middle" font-family="SFMono-Regular,Consolas,Menlo,monospace" font-size="13" fill="#a1a1aa">srimoney@github:~</text>

    <g font-family="SFMono-Regular,Consolas,Menlo,monospace" font-size="15">
      <text x="24" y="66" fill="#22c55e">srimoney@github</text><text x="180" y="66" fill="#71717a">:~$</text><text x="212" y="66" fill="#e4e4e7"> whoami</text>

      <text x="24" y="98" fill="#0891b2">Srimoneyshankar Ajith</text>
      <text x="24" y="122" fill="#a1a1aa">CS &amp; Engineering, IIIT Kottayam</text>

      <text x="24" y="156" fill="#22c55e">OS</text><text x="140" y="156" fill="#e4e4e7">Linux (btw)</text>
      <text x="24" y="180" fill="#22c55e">Shell</text><text x="140" y="180" fill="#e4e4e7">zsh</text>
      <text x="24" y="204" fill="#22c55e">Editor</text><text x="140" y="204" fill="#e4e4e7">Neovim</text>
      <text x="24" y="228" fill="#22c55e">Stack</text><text x="140" y="228" fill="#e4e4e7">Python · C/C++ · TypeScript</text>
      <text x="24" y="252" fill="#22c55e">Building</text><text x="140" y="252" fill="#e4e4e7">ducktype, powerede-cop</text>
      <text x="24" y="276" fill="#22c55e">Focus</text><text x="140" y="276" fill="#e4e4e7">dev tooling, AI agents</text>

      <text x="24" y="308" fill="#22c55e">srimoney@github</text><text x="180" y="308" fill="#71717a">:~$</text>
      <rect x="212" y="296" width="9" height="16" fill="#e4e4e7"/>
    </g>
  </g>
  <rect x="0.5" y="0.5" width="799" height="329" rx="12" fill="none" stroke="#3f3f46"/>
</svg>
