<svg width="900" height="300" viewBox="0 0 900 300" xmlns="http://www.w3.org/2000/svg" role="img" aria-label="Neofetch-style profile card for Srimoneyshankar Ajith">
  <defs>
    <clipPath id="round"><rect x="0" y="0" width="900" height="300" rx="12"/></clipPath>
  </defs>
  <g clip-path="url(#round)">
    <rect width="900" height="300" fill="#18181b"/>
    <rect width="900" height="34" fill="#27272a"/>
    <circle cx="20" cy="17" r="6" fill="#f87171"/>
    <circle cx="42" cy="17" r="6" fill="#fbbf24"/>
    <circle cx="64" cy="17" r="6" fill="#34d399"/>
    <text x="450" y="22" text-anchor="middle" font-family="SFMono-Regular,Consolas,Menlo,monospace" font-size="13" fill="#a1a1aa">srimoney@github:~</text>

    <!-- SMS pixel logo -->
    <g transform="translate(40,116)">
      <rect x="12" y="0" width="10" height="10" fill="#22c55e"/>
      <rect x="24" y="0" width="10" height="10" fill="#22c55e"/>
      <rect x="36" y="0" width="10" height="10" fill="#22c55e"/>
      <rect x="48" y="0" width="10" height="10" fill="#22c55e"/>
      <rect x="0" y="12" width="10" height="10" fill="#22c55e"/>
      <rect x="0" y="24" width="10" height="10" fill="#22c55e"/>
      <rect x="12" y="36" width="10" height="10" fill="#22c55e"/>
      <rect x="24" y="36" width="10" height="10" fill="#22c55e"/>
      <rect x="36" y="36" width="10" height="10" fill="#22c55e"/>
      <rect x="48" y="48" width="10" height="10" fill="#22c55e"/>
      <rect x="48" y="60" width="10" height="10" fill="#22c55e"/>
      <rect x="0" y="72" width="10" height="10" fill="#22c55e"/>
      <rect x="12" y="72" width="10" height="10" fill="#22c55e"/>
      <rect x="24" y="72" width="10" height="10" fill="#22c55e"/>
      <rect x="36" y="72" width="10" height="10" fill="#22c55e"/>

      <rect x="94" y="0" width="10" height="10" fill="#0891b2"/>
      <rect x="142" y="0" width="10" height="10" fill="#0891b2"/>
      <rect x="94" y="12" width="10" height="10" fill="#0891b2"/>
      <rect x="106" y="12" width="10" height="10" fill="#0891b2"/>
      <rect x="130" y="12" width="10" height="10" fill="#0891b2"/>
      <rect x="142" y="12" width="10" height="10" fill="#0891b2"/>
      <rect x="94" y="24" width="10" height="10" fill="#0891b2"/>
      <rect x="118" y="24" width="10" height="10" fill="#0891b2"/>
      <rect x="142" y="24" width="10" height="10" fill="#0891b2"/>
      <rect x="94" y="36" width="10" height="10" fill="#0891b2"/>
      <rect x="142" y="36" width="10" height="10" fill="#0891b2"/>
      <rect x="94" y="48" width="10" height="10" fill="#0891b2"/>
      <rect x="142" y="48" width="10" height="10" fill="#0891b2"/>
      <rect x="94" y="60" width="10" height="10" fill="#0891b2"/>
      <rect x="142" y="60" width="10" height="10" fill="#0891b2"/>
      <rect x="94" y="72" width="10" height="10" fill="#0891b2"/>
      <rect x="142" y="72" width="10" height="10" fill="#0891b2"/>

      <rect x="200" y="0" width="10" height="10" fill="#22c55e"/>
      <rect x="212" y="0" width="10" height="10" fill="#22c55e"/>
      <rect x="224" y="0" width="10" height="10" fill="#22c55e"/>
      <rect x="236" y="0" width="10" height="10" fill="#22c55e"/>
      <rect x="188" y="12" width="10" height="10" fill="#22c55e"/>
      <rect x="188" y="24" width="10" height="10" fill="#22c55e"/>
      <rect x="200" y="36" width="10" height="10" fill="#22c55e"/>
      <rect x="212" y="36" width="10" height="10" fill="#22c55e"/>
      <rect x="224" y="36" width="10" height="10" fill="#22c55e"/>
      <rect x="236" y="48" width="10" height="10" fill="#22c55e"/>
      <rect x="236" y="60" width="10" height="10" fill="#22c55e"/>
      <rect x="188" y="72" width="10" height="10" fill="#22c55e"/>
      <rect x="200" y="72" width="10" height="10" fill="#22c55e"/>
      <rect x="212" y="72" width="10" height="10" fill="#22c55e"/>
      <rect x="224" y="72" width="10" height="10" fill="#22c55e"/>
    </g>

    <!-- divider -->
    <rect x="330" y="50" width="1" height="216" fill="#3f3f46"/>

    <g font-family="SFMono-Regular,Consolas,Menlo,monospace" font-size="15">
      <text x="356" y="76" fill="#0891b2" font-weight="bold">srimoney@github</text>
      <rect x="356" y="86" width="230" height="1" fill="#3f3f46"/>
      <text x="356" y="110" fill="#e4e4e7">Srimoneyshankar Ajith</text>
      <text x="356" y="132" fill="#71717a">CS &amp; Engineering student, IIIT Kottayam</text>

      <text x="356" y="168" fill="#22c55e">skills</text><text x="470" y="168" fill="#e4e4e7">Python, C/C++, systems basics, vibing</text>
      <text x="356" y="192" fill="#22c55e">building</text><text x="470" y="192" fill="#e4e4e7">ducktype, claude-start, skillDB, notegen</text>
      <text x="356" y="216" fill="#22c55e">interests</text><text x="470" y="216" fill="#e4e4e7">DSA, ML, reading, music</text>
      <text x="356" y="240" fill="#22c55e">also into</text><text x="470" y="240" fill="#e4e4e7">gaming, tinkering with tools, always learning</text>
    </g>
  </g>
  <rect x="0.5" y="0.5" width="899" height="299" rx="12" fill="none" stroke="#3f3f46"/>
</svg>
